# xmcd
#
# Track frame offsets: 
#        150
#        24367
#        43617
#        60707
#        84032
#        103335
#        122465
#        147572
#        167987
#        189755
#
# Disc length: 2873 seconds
#
# Revision: 0
# Processed by: cddbd v1.5.2PL0 Copyright (c) Steve Scherf et al.
# Submitted via: ExactAudioCopy v0.99pb5
#
DISCID=7d0b370a
DTITLE=Manh Dinh - Xe thu tinh
DYEAR=1900
DGENRE=Soundtrack
TTITLE0=Xe thu tinh
TTITLE1=Dam me
TTITLE2=Co be ngay xua
TTITLE3=Trom nhin nhau_Hoang Oanh
TTITLE4=Ngay mai dep phai khong em
TTITLE5=Tron kiep don coi
TTITLE6=Tho hong
TTITLE7=Hen nguoi kiep sau vs Yen Phuong
TTITLE8=Linh hon tuong da_Thai Chau
TTITLE9=Nua dem bien gioi_Hoang Oanh
EXTD=
EXTT0=
EXTT1=
EXTT2=
EXTT3=
EXTT4=
EXTT5=
EXTT6=
EXTT7=
EXTT8=
EXTT9=
PLAYORDER=
